<mxfile host="app.diagrams.net" agent="Mozilla/5.0 (Windows NT 10.0; Win64; x64) AppleWebKit/537.36 (KHTML, like Gecko) Chrome/135.0.0.0 Safari/537.36 OPR/120.0.0.0" version="28.2.0">
  <diagram name="Página-1" id="QQvut3r4X2DuY2sbBsaN">
    <mxGraphModel dx="1040" dy="1696" grid="1" gridSize="10" guides="1" tooltips="1" connect="1" arrows="1" fold="1" page="1" pageScale="1" pageWidth="827" pageHeight="1169" math="0" shadow="0">
      <root>
        <mxCell id="0" />
        <mxCell id="1" parent="0" />
        <mxCell id="yeI2UG2H14cPbz6sW81u-7" value="Vendedor" style="shape=umlActor;verticalLabelPosition=bottom;verticalAlign=top;html=1;outlineConnect=0;" parent="1" vertex="1">
          <mxGeometry x="80" y="80" width="40" height="70" as="geometry" />
        </mxCell>
        <mxCell id="yeI2UG2H14cPbz6sW81u-10" value="Venda de Produtos" style="ellipse;whiteSpace=wrap;html=1;" parent="1" vertex="1">
          <mxGeometry x="305" y="-110" width="220" height="80" as="geometry" />
        </mxCell>
        <mxCell id="yeI2UG2H14cPbz6sW81u-11" value="" style="endArrow=classic;html=1;rounded=0;entryX=0;entryY=0.5;entryDx=0;entryDy=0;exitX=0.75;exitY=0.1;exitDx=0;exitDy=0;exitPerimeter=0;" parent="1" source="yeI2UG2H14cPbz6sW81u-7" target="yeI2UG2H14cPbz6sW81u-10" edge="1">
          <mxGeometry width="50" height="50" relative="1" as="geometry">
            <mxPoint x="120" y="120" as="sourcePoint" />
            <mxPoint x="170" y="70" as="targetPoint" />
          </mxGeometry>
        </mxCell>
        <mxCell id="yeI2UG2H14cPbz6sW81u-16" value="Consulta de Produtos" style="ellipse;whiteSpace=wrap;html=1;" parent="1" vertex="1">
          <mxGeometry x="300" y="110" width="220" height="90" as="geometry" />
        </mxCell>
        <mxCell id="yeI2UG2H14cPbz6sW81u-17" value="" style="endArrow=classic;html=1;rounded=0;entryX=1;entryY=0.5;entryDx=0;entryDy=0;exitX=0.5;exitY=0.5;exitDx=0;exitDy=0;exitPerimeter=0;" parent="1" target="yeI2UG2H14cPbz6sW81u-16" edge="1">
          <mxGeometry width="50" height="50" relative="1" as="geometry">
            <mxPoint x="745" y="115" as="sourcePoint" />
            <mxPoint x="580" y="190" as="targetPoint" />
          </mxGeometry>
        </mxCell>
        <mxCell id="yeI2UG2H14cPbz6sW81u-18" value="" style="endArrow=classic;html=1;rounded=0;entryX=0;entryY=0.5;entryDx=0;entryDy=0;exitX=0.5;exitY=0.5;exitDx=0;exitDy=0;exitPerimeter=0;" parent="1" source="yeI2UG2H14cPbz6sW81u-7" target="yeI2UG2H14cPbz6sW81u-16" edge="1">
          <mxGeometry width="50" height="50" relative="1" as="geometry">
            <mxPoint x="530" y="240" as="sourcePoint" />
            <mxPoint x="580" y="190" as="targetPoint" />
            <Array as="points" />
          </mxGeometry>
        </mxCell>
        <mxCell id="yeI2UG2H14cPbz6sW81u-20" value="Troca de Produto" style="ellipse;whiteSpace=wrap;html=1;" parent="1" vertex="1">
          <mxGeometry x="295" y="360" width="220" height="90" as="geometry" />
        </mxCell>
        <mxCell id="yeI2UG2H14cPbz6sW81u-21" value="" style="endArrow=classic;html=1;rounded=0;exitX=0;exitY=1;exitDx=0;exitDy=0;exitPerimeter=0;entryX=1;entryY=0.5;entryDx=0;entryDy=0;" parent="1" target="yeI2UG2H14cPbz6sW81u-20" edge="1">
          <mxGeometry width="50" height="50" relative="1" as="geometry">
            <mxPoint x="730" y="150" as="sourcePoint" />
            <mxPoint x="750" y="300" as="targetPoint" />
          </mxGeometry>
        </mxCell>
        <mxCell id="yeI2UG2H14cPbz6sW81u-22" value="" style="endArrow=classic;html=1;rounded=0;entryX=0;entryY=0.5;entryDx=0;entryDy=0;" parent="1" target="yeI2UG2H14cPbz6sW81u-20" edge="1">
          <mxGeometry width="50" height="50" relative="1" as="geometry">
            <mxPoint x="110" y="150" as="sourcePoint" />
            <mxPoint x="580" y="190" as="targetPoint" />
          </mxGeometry>
        </mxCell>
        <mxCell id="yeI2UG2H14cPbz6sW81u-23" value="Caixa" style="shape=umlActor;verticalLabelPosition=bottom;verticalAlign=top;html=1;outlineConnect=0;" parent="1" vertex="1">
          <mxGeometry x="730" y="90" width="30" height="60" as="geometry" />
        </mxCell>
        <mxCell id="yeI2UG2H14cPbz6sW81u-25" value="Registro de Clientes" style="ellipse;whiteSpace=wrap;html=1;" parent="1" vertex="1">
          <mxGeometry x="300" y="-10" width="220" height="90" as="geometry" />
        </mxCell>
        <mxCell id="yeI2UG2H14cPbz6sW81u-30" value="Estoque" style="ellipse;whiteSpace=wrap;html=1;" parent="1" vertex="1">
          <mxGeometry x="350" y="585" width="120" height="80" as="geometry" />
        </mxCell>
        <mxCell id="yeI2UG2H14cPbz6sW81u-39" value="" style="edgeStyle=orthogonalEdgeStyle;rounded=0;orthogonalLoop=1;jettySize=auto;html=1;entryX=0;entryY=0.5;entryDx=0;entryDy=0;" parent="1" source="yeI2UG2H14cPbz6sW81u-40" target="yeI2UG2H14cPbz6sW81u-41" edge="1">
          <mxGeometry relative="1" as="geometry">
            <mxPoint x="255" y="1130" as="targetPoint" />
          </mxGeometry>
        </mxCell>
        <mxCell id="yeI2UG2H14cPbz6sW81u-40" value="Contador" style="shape=umlActor;verticalLabelPosition=bottom;verticalAlign=top;html=1;outlineConnect=0;" parent="1" vertex="1">
          <mxGeometry x="170" y="1100" width="30" height="60" as="geometry" />
        </mxCell>
        <mxCell id="yeI2UG2H14cPbz6sW81u-41" value="Declaração de Imposto&amp;nbsp;" style="ellipse;whiteSpace=wrap;html=1;" parent="1" vertex="1">
          <mxGeometry x="270" y="1090" width="120" height="80" as="geometry" />
        </mxCell>
        <mxCell id="yeI2UG2H14cPbz6sW81u-42" value="Receita Federal" style="shape=umlActor;verticalLabelPosition=bottom;verticalAlign=top;html=1;outlineConnect=0;" parent="1" vertex="1">
          <mxGeometry x="460" y="1100" width="30" height="60" as="geometry" />
        </mxCell>
        <mxCell id="yeI2UG2H14cPbz6sW81u-43" value="" style="endArrow=classic;html=1;rounded=0;entryX=1;entryY=0.5;entryDx=0;entryDy=0;exitX=0.5;exitY=0.5;exitDx=0;exitDy=0;exitPerimeter=0;" parent="1" source="yeI2UG2H14cPbz6sW81u-42" target="yeI2UG2H14cPbz6sW81u-41" edge="1">
          <mxGeometry width="50" height="50" relative="1" as="geometry">
            <mxPoint x="480" y="1030" as="sourcePoint" />
            <mxPoint x="530" y="980" as="targetPoint" />
          </mxGeometry>
        </mxCell>
        <mxCell id="yeI2UG2H14cPbz6sW81u-46" value="" style="endArrow=classic;html=1;rounded=0;entryX=1;entryY=0.5;entryDx=0;entryDy=0;exitX=0;exitY=0.3333333333333333;exitDx=0;exitDy=0;exitPerimeter=0;" parent="1" source="yeI2UG2H14cPbz6sW81u-23" target="yeI2UG2H14cPbz6sW81u-25" edge="1">
          <mxGeometry width="50" height="50" relative="1" as="geometry">
            <mxPoint x="530" y="30" as="sourcePoint" />
            <mxPoint x="580" y="-20" as="targetPoint" />
          </mxGeometry>
        </mxCell>
        <mxCell id="yeI2UG2H14cPbz6sW81u-49" value="&#xa;Finalizar venda&#xa;&#xa;" style="ellipse;whiteSpace=wrap;html=1;" parent="1" vertex="1">
          <mxGeometry x="295" y="220" width="230" height="110" as="geometry" />
        </mxCell>
        <mxCell id="yeI2UG2H14cPbz6sW81u-61" value="" style="endArrow=none;html=1;rounded=0;entryX=0.5;entryY=0.5;entryDx=0;entryDy=0;entryPerimeter=0;" parent="1" source="yeI2UG2H14cPbz6sW81u-10" target="yeI2UG2H14cPbz6sW81u-23" edge="1">
          <mxGeometry width="50" height="50" relative="1" as="geometry">
            <mxPoint x="590" y="190" as="sourcePoint" />
            <mxPoint x="640" y="140" as="targetPoint" />
            <Array as="points">
              <mxPoint x="540" y="-70" />
            </Array>
          </mxGeometry>
        </mxCell>
        <mxCell id="yeI2UG2H14cPbz6sW81u-62" value="" style="endArrow=none;html=1;rounded=0;exitX=0.5;exitY=0.5;exitDx=0;exitDy=0;exitPerimeter=0;entryX=0;entryY=0.5;entryDx=0;entryDy=0;" parent="1" source="yeI2UG2H14cPbz6sW81u-7" target="yeI2UG2H14cPbz6sW81u-25" edge="1">
          <mxGeometry width="50" height="50" relative="1" as="geometry">
            <mxPoint x="590" y="190" as="sourcePoint" />
            <mxPoint x="640" y="140" as="targetPoint" />
          </mxGeometry>
        </mxCell>
        <mxCell id="yeI2UG2H14cPbz6sW81u-63" value="" style="endArrow=none;html=1;rounded=0;entryX=0;entryY=0.5;entryDx=0;entryDy=0;" parent="1" source="yeI2UG2H14cPbz6sW81u-7" target="yeI2UG2H14cPbz6sW81u-49" edge="1">
          <mxGeometry width="50" height="50" relative="1" as="geometry">
            <mxPoint x="590" y="190" as="sourcePoint" />
            <mxPoint x="640" y="140" as="targetPoint" />
          </mxGeometry>
        </mxCell>
        <mxCell id="yeI2UG2H14cPbz6sW81u-64" value="" style="endArrow=none;html=1;rounded=0;exitX=1;exitY=0.5;exitDx=0;exitDy=0;" parent="1" source="yeI2UG2H14cPbz6sW81u-49" target="yeI2UG2H14cPbz6sW81u-23" edge="1">
          <mxGeometry width="50" height="50" relative="1" as="geometry">
            <mxPoint x="590" y="170" as="sourcePoint" />
            <mxPoint x="640" y="120" as="targetPoint" />
          </mxGeometry>
        </mxCell>
        <mxCell id="yeI2UG2H14cPbz6sW81u-66" value="Registro de Produtos" style="ellipse;whiteSpace=wrap;html=1;" parent="1" vertex="1">
          <mxGeometry x="312.5" y="480" width="195" height="80" as="geometry" />
        </mxCell>
        <mxCell id="yeI2UG2H14cPbz6sW81u-67" value="" style="endArrow=classic;html=1;rounded=0;exitX=0.5;exitY=1;exitDx=0;exitDy=0;" parent="1" source="yeI2UG2H14cPbz6sW81u-66" target="yeI2UG2H14cPbz6sW81u-30" edge="1">
          <mxGeometry width="50" height="50" relative="1" as="geometry">
            <mxPoint x="720" y="760" as="sourcePoint" />
            <mxPoint x="770" y="710" as="targetPoint" />
          </mxGeometry>
        </mxCell>
        <mxCell id="yeI2UG2H14cPbz6sW81u-69" value="" style="endArrow=none;html=1;rounded=0;exitX=0.5;exitY=0.5;exitDx=0;exitDy=0;exitPerimeter=0;entryX=0;entryY=0.5;entryDx=0;entryDy=0;" parent="1" source="yeI2UG2H14cPbz6sW81u-7" target="yeI2UG2H14cPbz6sW81u-66" edge="1">
          <mxGeometry width="50" height="50" relative="1" as="geometry">
            <mxPoint x="560" y="460" as="sourcePoint" />
            <mxPoint x="610" y="410" as="targetPoint" />
          </mxGeometry>
        </mxCell>
        <mxCell id="yeI2UG2H14cPbz6sW81u-70" value="" style="endArrow=none;html=1;rounded=0;exitX=1;exitY=0.5;exitDx=0;exitDy=0;" parent="1" source="yeI2UG2H14cPbz6sW81u-66" target="yeI2UG2H14cPbz6sW81u-23" edge="1">
          <mxGeometry width="50" height="50" relative="1" as="geometry">
            <mxPoint x="560" y="460" as="sourcePoint" />
            <mxPoint x="610" y="410" as="targetPoint" />
          </mxGeometry>
        </mxCell>
        <mxCell id="yeI2UG2H14cPbz6sW81u-71" value="Paciente" style="shape=umlActor;verticalLabelPosition=bottom;verticalAlign=top;html=1;outlineConnect=0;" parent="1" vertex="1">
          <mxGeometry x="1720" y="190" width="30" height="60" as="geometry" />
        </mxCell>
        <mxCell id="yeI2UG2H14cPbz6sW81u-72" value="Agendar Consultas" style="ellipse;whiteSpace=wrap;html=1;" parent="1" vertex="1">
          <mxGeometry x="1910" y="20" width="190" height="80" as="geometry" />
        </mxCell>
        <mxCell id="yeI2UG2H14cPbz6sW81u-73" value="Plano de saúde&amp;nbsp;" style="ellipse;whiteSpace=wrap;html=1;" parent="1" vertex="1">
          <mxGeometry x="1910" y="160" width="190" height="80" as="geometry" />
        </mxCell>
        <mxCell id="yeI2UG2H14cPbz6sW81u-74" value="Medicamentos Disponíveis&amp;nbsp;" style="ellipse;whiteSpace=wrap;html=1;" parent="1" vertex="1">
          <mxGeometry x="1915" y="320" width="180" height="80" as="geometry" />
        </mxCell>
        <mxCell id="yeI2UG2H14cPbz6sW81u-76" value="" style="endArrow=none;html=1;rounded=0;entryX=0;entryY=0.5;entryDx=0;entryDy=0;exitX=0.75;exitY=0.1;exitDx=0;exitDy=0;exitPerimeter=0;" parent="1" source="yeI2UG2H14cPbz6sW81u-71" target="yeI2UG2H14cPbz6sW81u-72" edge="1">
          <mxGeometry width="50" height="50" relative="1" as="geometry">
            <mxPoint x="1790" y="170" as="sourcePoint" />
            <mxPoint x="1840" y="120" as="targetPoint" />
          </mxGeometry>
        </mxCell>
        <mxCell id="yeI2UG2H14cPbz6sW81u-78" value="" style="endArrow=none;html=1;rounded=0;exitX=0.5;exitY=0.5;exitDx=0;exitDy=0;exitPerimeter=0;entryX=0;entryY=0.5;entryDx=0;entryDy=0;" parent="1" source="yeI2UG2H14cPbz6sW81u-71" target="yeI2UG2H14cPbz6sW81u-73" edge="1">
          <mxGeometry width="50" height="50" relative="1" as="geometry">
            <mxPoint x="1800" y="250" as="sourcePoint" />
            <mxPoint x="1850" y="200" as="targetPoint" />
          </mxGeometry>
        </mxCell>
        <mxCell id="yeI2UG2H14cPbz6sW81u-79" value="" style="endArrow=none;html=1;rounded=0;entryX=0;entryY=0.5;entryDx=0;entryDy=0;exitX=1;exitY=1;exitDx=0;exitDy=0;exitPerimeter=0;" parent="1" source="yeI2UG2H14cPbz6sW81u-71" target="yeI2UG2H14cPbz6sW81u-74" edge="1">
          <mxGeometry width="50" height="50" relative="1" as="geometry">
            <mxPoint x="1780" y="410" as="sourcePoint" />
            <mxPoint x="1830" y="360" as="targetPoint" />
          </mxGeometry>
        </mxCell>
        <mxCell id="yeI2UG2H14cPbz6sW81u-80" value="Doutor" style="shape=umlActor;verticalLabelPosition=bottom;verticalAlign=top;html=1;outlineConnect=0;" parent="1" vertex="1">
          <mxGeometry x="2380" y="350" width="30" height="60" as="geometry" />
        </mxCell>
        <mxCell id="yeI2UG2H14cPbz6sW81u-81" value="Relatorio Financeiro" style="ellipse;whiteSpace=wrap;html=1;" parent="1" vertex="1">
          <mxGeometry x="2130" y="250" width="150" height="80" as="geometry" />
        </mxCell>
        <mxCell id="yeI2UG2H14cPbz6sW81u-83" value="Prontuário Paciente" style="ellipse;whiteSpace=wrap;html=1;" parent="1" vertex="1">
          <mxGeometry x="2130" y="400" width="150" height="80" as="geometry" />
        </mxCell>
        <mxCell id="yeI2UG2H14cPbz6sW81u-84" value="&amp;lt;&amp;lt;extend&amp;gt;&amp;gt;" style="endArrow=none;dashed=1;html=1;dashPattern=1 3;strokeWidth=2;rounded=0;entryX=0.25;entryY=0.1;entryDx=0;entryDy=0;entryPerimeter=0;exitX=1;exitY=0.5;exitDx=0;exitDy=0;" parent="1" edge="1">
          <mxGeometry width="50" height="50" relative="1" as="geometry">
            <mxPoint x="2280" y="290" as="sourcePoint" />
            <mxPoint x="2387.5" y="356" as="targetPoint" />
          </mxGeometry>
        </mxCell>
        <mxCell id="yeI2UG2H14cPbz6sW81u-86" value="&amp;lt;&amp;lt;include&amp;gt;&amp;gt;" style="endArrow=none;dashed=1;html=1;dashPattern=1 3;strokeWidth=2;rounded=0;exitX=1;exitY=0.5;exitDx=0;exitDy=0;" parent="1" source="yeI2UG2H14cPbz6sW81u-83" target="yeI2UG2H14cPbz6sW81u-80" edge="1">
          <mxGeometry width="50" height="50" relative="1" as="geometry">
            <mxPoint x="2170" y="350" as="sourcePoint" />
            <mxPoint x="2220" y="300" as="targetPoint" />
          </mxGeometry>
        </mxCell>
        <mxCell id="yeI2UG2H14cPbz6sW81u-87" value="Cadastro de Produtos" style="swimlane;fontStyle=0;childLayout=stackLayout;horizontal=1;startSize=30;horizontalStack=0;resizeParent=1;resizeParentMax=0;resizeLast=0;collapsible=1;marginBottom=0;whiteSpace=wrap;html=1;" parent="1" vertex="1">
          <mxGeometry x="30" y="-1124" width="310" height="150" as="geometry" />
        </mxCell>
      </root>
    </mxGraphModel>
  </diagram>
</mxfile>
